<?xml version="1.0" encoding="UTF-8" standalone="no"?>
<!-- Created with Inkscape (http://www.inkscape.org/) -->

<svg
   width="297mm"
   height="210mm"
   viewBox="0 0 297 210"
   version="1.1"
   id="svg8"
   inkscape:version="1.2 (dc2aedaf03, 2022-05-15)"
   sodipodi:docname="create-epoched.svg"
   xml:space="preserve"
   inkscape:export-filename="create-epoched.png"
   inkscape:export-xdpi="96"
   inkscape:export-ydpi="96"
   xmlns:inkscape="http://www.inkscape.org/namespaces/inkscape"
   xmlns:sodipodi="http://sodipodi.sourceforge.net/DTD/sodipodi-0.dtd"
   xmlns:xlink="http://www.w3.org/1999/xlink"
   xmlns="http://www.w3.org/2000/svg"
   xmlns:svg="http://www.w3.org/2000/svg"
   xmlns:rdf="http://www.w3.org/1999/02/22-rdf-syntax-ns#"
   xmlns:cc="http://creativecommons.org/ns#"
   xmlns:dc="http://purl.org/dc/elements/1.1/"><defs
     id="defs2" /><sodipodi:namedview
     id="base"
     pagecolor="#ffffff"
     bordercolor="#666666"
     borderopacity="1.0"
     inkscape:pageopacity="0.0"
     inkscape:pageshadow="2"
     inkscape:zoom="5.9512013"
     inkscape:cx="492.25356"
     inkscape:cy="547.20045"
     inkscape:document-units="mm"
     inkscape:current-layer="layer2"
     showgrid="false"
     inkscape:window-width="1920"
     inkscape:window-height="1051"
     inkscape:window-x="-9"
     inkscape:window-y="-9"
     inkscape:window-maximized="1"
     inkscape:showpageshadow="0"
     inkscape:pagecheckerboard="0"
     inkscape:deskcolor="#d1d1d1" /><metadata
     id="metadata5"><rdf:RDF><cc:Work
         rdf:about=""><dc:format>image/svg+xml</dc:format><dc:type
           rdf:resource="http://purl.org/dc/dcmitype/StillImage" /><dc:title /></cc:Work></rdf:RDF></metadata><g
     inkscape:groupmode="layer"
     id="layer2"
     inkscape:label="background"><rect
       style="fill:#ffffff;fill-opacity:1;stroke:none;stroke-width:0.25;stroke-dasharray:none;stroke-dashoffset:0;stroke-opacity:1"
       id="rect27933"
       width="287.46106"
       height="172.27545"
       x="1.5089819"
       y="105.10779"
       transform="translate(0,-87.000001)" /><path
       style="fill:none;fill-opacity:1;stroke-width:0.184;stroke-opacity:1;stroke:#ff7900;stroke-dasharray:none"
       d="m 112.65862,183.52597 v 1.77835"
       id="path415" /><path
       style="fill:none;fill-opacity:1;stroke:#ff7900;stroke-width:0.184;stroke-opacity:1;stroke-dasharray:none"
       d="m 144.04654,183.52597 v 1.77835"
       id="path1371" /><path
       style="fill:none;fill-opacity:1;stroke:#ff7900;stroke-width:0.184;stroke-dasharray:none;stroke-opacity:1"
       d="m 112.74754,184.50406 h 13.55994"
       id="path1533" /><path
       style="fill:none;fill-opacity:1;stroke:#ff7900;stroke-width:0.184;stroke-dasharray:none;stroke-opacity:1"
       d="m 130.84228,184.59298 h 13.07089"
       id="path1535" /></g><g
     inkscape:label="Layer 1"
     inkscape:groupmode="layer"
     id="layer1"
     transform="translate(0,-87)"><image
       xlink:href="..%5C..%5Ctable-images%5Ceye-data.png"
       width="95.711823"
       height="112.09249"
       preserveAspectRatio="none"
       style="image-rendering:optimizeQuality"
       id="image877"
       x="189.82753"
       y="124.89038" /><image
       xlink:href="..%5C..%5Ctable-images%5Clocations.png"
       width="64.102386"
       height="27.413116"
       preserveAspectRatio="none"
       style="image-rendering:optimizeQuality"
       id="image939"
       x="13.22567"
       y="246.91512" /><image
       xlink:href="..%5C..%5Ctable-images%5Cscreens.png"
       width="68.998123"
       height="22.464506"
       preserveAspectRatio="none"
       style="image-rendering:optimizeQuality"
       id="image1001"
       x="11.638171"
       y="211.04799" /><image
       xlink:href="..%5C..%5Ctable-images%5Cspeech-timings.png"
       width="75.369598"
       height="20.327353"
       preserveAspectRatio="none"
       style="image-rendering:optimizeQuality"
       id="image1063"
       x="10.050673"
       y="178.87799" /><image
       xlink:href="..%5C..%5Ctable-images%5Cstimuli.png"
       width="78.553978"
       height="39.796722"
       preserveAspectRatio="none"
       style="image-rendering:optimizeQuality"
       id="image1125"
       x="10.050673"
       y="121.27592" /><image
       xlink:href="..%5C..%5Ctable-images%5Csubjects.png"
       width="68.048134"
       height="13.262281"
       preserveAspectRatio="none"
       style="image-rendering:optimizeQuality"
       id="image1206"
       x="105.70495"
       y="120.15262" /><image
       xlink:href="..%5C..%5Ctable-images%5Ctrials.png"
       width="78.948689"
       height="33.155476"
       preserveAspectRatio="none"
       style="image-rendering:optimizeQuality"
       id="image1268"
       x="100.94361"
       y="146.39717" /><text
       xml:space="preserve"
       style="font-style:normal;font-variant:normal;font-weight:normal;font-stretch:normal;font-size:8.46667px;line-height:1.25;font-family:sans-serif;-inkscape-font-specification:'sans-serif, Normal';font-variant-ligatures:normal;font-variant-caps:normal;font-variant-numeric:normal;font-feature-settings:normal;text-align:start;letter-spacing:0px;word-spacing:0px;writing-mode:lr-tb;text-anchor:start;fill:#000000;fill-opacity:1;stroke:none;stroke-width:0.264583"
       x="209.55058"
       y="115.31742"
       id="text1273"><tspan
         sodipodi:role="line"
         id="tspan1271"
         x="209.55058"
         y="115.31742"
         style="font-style:normal;font-variant:normal;font-weight:normal;font-stretch:normal;font-size:4.23333px;font-family:sans-serif;-inkscape-font-specification:'sans-serif, Normal';font-variant-ligatures:normal;font-variant-caps:normal;font-variant-numeric:normal;font-feature-settings:normal;text-align:start;writing-mode:lr-tb;text-anchor:start;stroke-width:0.264583">adult/sub_XXX.gazedata</tspan></text><text
       xml:space="preserve"
       style="font-style:normal;font-variant:normal;font-weight:normal;font-stretch:normal;font-size:8.46667px;line-height:1.25;font-family:sans-serif;-inkscape-font-specification:'sans-serif, Normal';font-variant-ligatures:normal;font-variant-caps:normal;font-variant-numeric:normal;font-feature-settings:normal;text-align:start;letter-spacing:0px;word-spacing:0px;writing-mode:lr-tb;text-anchor:start;fill:#000000;fill-opacity:1;stroke:none;stroke-width:0.264583"
       x="209.57126"
       y="119.68416"
       id="text1273-0"><tspan
         sodipodi:role="line"
         id="tspan1271-4"
         x="209.57126"
         y="119.68416"
         style="font-style:normal;font-variant:normal;font-weight:normal;font-stretch:normal;font-size:4.23333px;font-family:sans-serif;-inkscape-font-specification:'sans-serif, Normal';font-variant-ligatures:normal;font-variant-caps:normal;font-variant-numeric:normal;font-feature-settings:normal;text-align:start;writing-mode:lr-tb;text-anchor:start;stroke-width:0.264583">child/sub_YYY.gazedata</tspan></text><text
       id="text1295"
       y="116.09303"
       x="125.12019"
       style="font-style:normal;font-variant:normal;font-weight:normal;font-stretch:normal;font-size:8.46667px;line-height:1.25;font-family:sans-serif;-inkscape-font-specification:'sans-serif, Normal';font-variant-ligatures:normal;font-variant-caps:normal;font-variant-numeric:normal;font-feature-settings:normal;text-align:start;letter-spacing:0px;word-spacing:0px;writing-mode:lr-tb;text-anchor:start;fill:#000000;fill-opacity:1;stroke:none;stroke-width:0.264583"
       xml:space="preserve"><tspan
         style="font-style:normal;font-variant:normal;font-weight:normal;font-stretch:normal;font-size:4.23333px;font-family:sans-serif;-inkscape-font-specification:'sans-serif, Normal';font-variant-ligatures:normal;font-variant-caps:normal;font-variant-numeric:normal;font-feature-settings:normal;text-align:start;writing-mode:lr-tb;text-anchor:start;stroke-width:0.264583"
         y="116.09303"
         x="125.12019"
         id="tspan1293"
         sodipodi:role="line">subjects.csv</tspan></text><text
       xml:space="preserve"
       style="font-style:normal;font-variant:normal;font-weight:normal;font-stretch:normal;font-size:8.46667px;line-height:1.25;font-family:sans-serif;-inkscape-font-specification:'sans-serif, Normal';font-variant-ligatures:normal;font-variant-caps:normal;font-variant-numeric:normal;font-feature-settings:normal;text-align:start;letter-spacing:0px;word-spacing:0px;writing-mode:lr-tb;text-anchor:start;fill:#000000;fill-opacity:1;stroke:none;stroke-width:0.264583"
       x="127.59934"
       y="143.21336"
       id="text1299"><tspan
         sodipodi:role="line"
         id="tspan1297"
         x="127.59934"
         y="143.21336"
         style="font-style:normal;font-variant:normal;font-weight:normal;font-stretch:normal;font-size:4.23333px;font-family:sans-serif;-inkscape-font-specification:'sans-serif, Normal';font-variant-ligatures:normal;font-variant-caps:normal;font-variant-numeric:normal;font-feature-settings:normal;text-align:start;writing-mode:lr-tb;text-anchor:start;stroke-width:0.264583">trials.csv</tspan></text><text
       xml:space="preserve"
       style="font-style:normal;font-variant:normal;font-weight:normal;font-stretch:normal;font-size:8.46667px;line-height:1.25;font-family:sans-serif;-inkscape-font-specification:'sans-serif, Normal';font-variant-ligatures:normal;font-variant-caps:normal;font-variant-numeric:normal;font-feature-settings:normal;text-align:start;letter-spacing:0px;word-spacing:0px;writing-mode:lr-tb;text-anchor:start;fill:#000000;fill-opacity:1;stroke:none;stroke-width:0.264583"
       x="34.153599"
       y="116.84482"
       id="text1303"><tspan
         sodipodi:role="line"
         id="tspan1301"
         x="34.153599"
         y="116.84482"
         style="font-style:normal;font-variant:normal;font-weight:normal;font-stretch:normal;font-size:4.23333px;font-family:sans-serif;-inkscape-font-specification:'sans-serif, Normal';font-variant-ligatures:normal;font-variant-caps:normal;font-variant-numeric:normal;font-feature-settings:normal;text-align:start;writing-mode:lr-tb;text-anchor:start;stroke-width:0.264583">stimuli.csv</tspan></text><path
       style="fill:none;stroke:#30b1e6;stroke-width:0.26458332px;stroke-linecap:butt;stroke-linejoin:miter;stroke-opacity:1"
       d="m 106.29858,126.59428 h -6.310516 v 25.91525 l 1.465506,0.0383"
       id="path1305"
       inkscape:connector-curvature="0"
       sodipodi:nodetypes="cccc" /><path
       style="fill:none;stroke:#30b1e6;stroke-width:0.26471189px;stroke-linecap:butt;stroke-linejoin:miter;stroke-opacity:1"
       d="m 235.93667,111.18261 0,-2.75655 H 99.980544 v 18.04288"
       id="path1313"
       inkscape:connector-curvature="0"
       sodipodi:nodetypes="cccc" /><rect
       style="opacity:1;fill:none;fill-opacity:1;stroke:#30b1e6;stroke-width:0.26499999;stroke-linecap:butt;stroke-linejoin:round;stroke-miterlimit:4;stroke-dasharray:none;stroke-opacity:1"
       id="rect1315"
       width="9.3973742"
       height="5.0119333"
       x="231.05013"
       y="111.18258"
       ry="2.5059667" /><rect
       style="opacity:1;fill:none;fill-opacity:1;stroke:#30b1e6;stroke-width:0.26095694;stroke-linecap:butt;stroke-linejoin:round;stroke-miterlimit:4;stroke-dasharray:none;stroke-opacity:1"
       id="rect1317"
       width="8.8158731"
       height="4.2551265"
       x="230.13744"
       y="116.02098"
       ry="2.1275632" /><path
       style="fill:none;stroke:#eb1841;stroke-width:0.264583px;stroke-linecap:butt;stroke-linejoin:miter;stroke-opacity:1"
       d="m 101.1804,157.36751 h -1.240392 v 26.75699 l 83.283342,0.3544 v 45.00844 l 7.08794,0"
       id="path1319"
       inkscape:connector-curvature="0"
       sodipodi:nodetypes="ccccc" /><path
       style="fill:none;fill-opacity:0.85098;stroke:#24eb19;stroke-width:0.219674;stroke-opacity:1"
       d="m 88.113066,127.95252 h 8.568741 v 35.05194 h 4.498593"
       id="path1716"
       sodipodi:nodetypes="cccc" /><text
       xml:space="preserve"
       style="font-style:normal;font-variant:normal;font-weight:normal;font-stretch:normal;font-size:8.46667px;line-height:1.25;font-family:sans-serif;-inkscape-font-specification:'sans-serif, Normal';font-variant-ligatures:normal;font-variant-caps:normal;font-variant-numeric:normal;font-feature-settings:normal;text-align:start;letter-spacing:0px;word-spacing:0px;writing-mode:lr-tb;text-anchor:start;fill:#000000;fill-opacity:1;stroke:none;stroke-width:0.264583"
       x="25.157757"
       y="176.1981"
       id="text1924"><tspan
         sodipodi:role="line"
         id="tspan1922"
         x="25.157757"
         y="176.1981"
         style="font-style:normal;font-variant:normal;font-weight:normal;font-stretch:normal;font-size:4.23333px;font-family:sans-serif;-inkscape-font-specification:'sans-serif, Normal';font-variant-ligatures:normal;font-variant-caps:normal;font-variant-numeric:normal;font-feature-settings:normal;text-align:start;writing-mode:lr-tb;text-anchor:start;stroke-width:0.264583">speech-timings.csv</tspan></text><image
       width="27.212151"
       height="17.651125"
       preserveAspectRatio="none"
       style="image-rendering:optimizeQuality"
       xlink:href="../weighall-existing-competitor.jpg"
       id="image3131"
       x="114.20039"
       y="222.3942" /><rect
       style="fill:none;fill-opacity:0.85098;stroke:#000000;stroke-width:0.112316;stroke-dasharray:none;stroke-opacity:1"
       id="rect3552"
       width="31.494261"
       height="21.466511"
       x="112.54189"
       y="220.34528" /><rect
       style="fill:none;fill-opacity:0.85098;stroke:#000000;stroke-width:0.112316;stroke-dasharray:none;stroke-opacity:1"
       id="rect4854"
       width="31.494261"
       height="21.466511"
       x="112.54189"
       y="247.71088" /><text
       xml:space="preserve"
       style="font-style:normal;font-variant:normal;font-weight:normal;font-stretch:normal;font-size:8.46667px;line-height:1.25;font-family:sans-serif;-inkscape-font-specification:'sans-serif, Normal';font-variant-ligatures:normal;font-variant-caps:normal;font-variant-numeric:normal;font-feature-settings:normal;text-align:start;letter-spacing:0px;word-spacing:0px;writing-mode:lr-tb;text-anchor:start;fill:#000000;fill-opacity:1;stroke:none;stroke-width:0.264583"
       x="33.095264"
       y="208.89272"
       id="text4858"><tspan
         sodipodi:role="line"
         id="tspan4856"
         x="33.095264"
         y="208.89272"
         style="font-style:normal;font-variant:normal;font-weight:normal;font-stretch:normal;font-size:4.23333px;font-family:sans-serif;-inkscape-font-specification:'sans-serif, Normal';font-variant-ligatures:normal;font-variant-caps:normal;font-variant-numeric:normal;font-feature-settings:normal;text-align:start;writing-mode:lr-tb;text-anchor:start;stroke-width:0.264583">screens.csv</tspan></text><text
       xml:space="preserve"
       style="font-style:normal;font-variant:normal;font-weight:normal;font-stretch:normal;font-size:8.46667px;line-height:1.25;font-family:sans-serif;-inkscape-font-specification:'sans-serif, Normal';font-variant-ligatures:normal;font-variant-caps:normal;font-variant-numeric:normal;font-feature-settings:normal;text-align:start;letter-spacing:0px;word-spacing:0px;writing-mode:lr-tb;text-anchor:start;fill:#000000;fill-opacity:1;stroke:none;stroke-width:0.264583"
       x="30.978596"
       y="244.35379"
       id="text4964"><tspan
         sodipodi:role="line"
         id="tspan4962"
         x="30.978596"
         y="244.35379"
         style="font-style:normal;font-variant:normal;font-weight:normal;font-stretch:normal;font-size:4.23333px;font-family:sans-serif;-inkscape-font-specification:'sans-serif, Normal';font-variant-ligatures:normal;font-variant-caps:normal;font-variant-numeric:normal;font-feature-settings:normal;text-align:start;writing-mode:lr-tb;text-anchor:start;stroke-width:0.264583">locations.csv</tspan></text><path
       style="fill:none;fill-opacity:0.85098;stroke:#000000;stroke-width:0.074954;stroke-dasharray:0.149908, 0.299815;stroke-dashoffset:0;stroke-opacity:1"
       d="m 112.68505,256.43176 h 12.67271 v -8.62243"
       id="path6509" /><path
       style="fill:none;fill-opacity:0.85098;stroke:#000000;stroke-width:0.0758121;stroke-dasharray:0.151624, 0.303249;stroke-dashoffset:0;stroke-opacity:1"
       d="m 130.84516,247.81018 v 8.55668 h 13.12957"
       id="path6511" /><path
       style="fill:none;fill-opacity:0.85098;stroke:#000000;stroke-width:0.0734692;stroke-dasharray:0.146938, 0.293877;stroke-dashoffset:0;stroke-opacity:1"
       d="m 112.48767,260.35359 h 12.86943 v 8.75383"
       id="path6522" /><path
       style="fill:none;fill-opacity:0.85098;stroke:#000000;stroke-width:0.0734692;stroke-dasharray:0.146938, 0.293877;stroke-dashoffset:0;stroke-opacity:1"
       d="m 130.97523,269.17274 v -8.81915 h 11.17093 1.6985"
       id="path6524" /><text
       xml:space="preserve"
       style="font-size:6.81022px;fill:none;fill-opacity:0.85098;stroke:none;stroke-width:0.214495;stroke-dasharray:0.42899, 0.857981;stroke-dashoffset:0;stroke-opacity:1"
       x="116.97539"
       y="254.60481"
       id="text6528"><tspan
         sodipodi:role="line"
         id="tspan6526"
         style="fill:#808080;fill-opacity:1;stroke:none;stroke-width:0.214495"
         x="116.97539"
         y="254.60481">1</tspan></text><text
       xml:space="preserve"
       style="font-size:6.81022px;fill:none;fill-opacity:0.85098;stroke:none;stroke-width:0.214495;stroke-dasharray:0.42899, 0.857981;stroke-dashoffset:0;stroke-opacity:1"
       x="134.80968"
       y="254.60481"
       id="text6532"><tspan
         sodipodi:role="line"
         id="tspan6530"
         style="fill:#808080;fill-opacity:1;stroke:none;stroke-width:0.214495"
         x="134.80968"
         y="254.60481">2</tspan></text><text
       xml:space="preserve"
       style="font-size:6.81022px;fill:none;fill-opacity:0.85098;stroke:none;stroke-width:0.214495;stroke-dasharray:0.42899, 0.857981;stroke-dashoffset:0;stroke-opacity:1"
       x="117.03753"
       y="267.27826"
       id="text7368"><tspan
         sodipodi:role="line"
         id="tspan7366"
         style="fill:#808080;fill-opacity:1;stroke:none;stroke-width:0.214495"
         x="117.03753"
         y="267.27826">3</tspan></text><text
       xml:space="preserve"
       style="font-size:6.81022px;fill:none;fill-opacity:0.85098;stroke:none;stroke-width:0.214495;stroke-dasharray:0.42899, 0.857981;stroke-dashoffset:0;stroke-opacity:1"
       x="134.80968"
       y="267.3436"
       id="text7372"><tspan
         sodipodi:role="line"
         id="tspan7370"
         style="fill:#808080;fill-opacity:1;stroke:none;stroke-width:0.214495"
         x="134.80968"
         y="267.3436">4</tspan></text><circle
       style="fill:#000000;fill-opacity:1;stroke:none;stroke-width:0.0734692;stroke-dasharray:0.146938, 0.293877;stroke-dashoffset:0;stroke-opacity:1"
       id="path7426"
       cx="112.77527"
       cy="247.63789"
       r="0.55528003" /><circle
       style="fill:#000000;fill-opacity:1;stroke:none;stroke-width:0.0734692;stroke-dasharray:0.146938, 0.293877;stroke-dashoffset:0;stroke-opacity:1"
       id="circle8260"
       cx="125.18741"
       cy="256.39172"
       r="0.55528003" /><text
       xml:space="preserve"
       style="font-size:2.33265px;fill:#000000;fill-opacity:1;stroke:none;stroke-width:0.0734692;stroke-dasharray:0.146938, 0.293877;stroke-dashoffset:0;stroke-opacity:1"
       x="106.21627"
       y="246.04697"
       id="text8994"><tspan
         sodipodi:role="line"
         id="tspan8992"
         style="font-style:normal;font-variant:normal;font-weight:normal;font-stretch:normal;font-size:1.5551px;font-family:'Courier New';-inkscape-font-specification:'Courier New, Normal';font-variant-ligatures:normal;font-variant-caps:normal;font-variant-numeric:normal;font-variant-east-asian:normal;stroke-width:0.0734692"
         x="106.21627"
         y="246.04697">(x1: 0, y1: 0)</tspan></text><text
       xml:space="preserve"
       style="font-size:2.33265px;fill:#000000;fill-opacity:1;stroke:none;stroke-width:0.0734692;stroke-dasharray:0.146938, 0.293877;stroke-dashoffset:0;stroke-opacity:1"
       x="116.53796"
       y="258.32849"
       id="text8998"><tspan
         sodipodi:role="line"
         id="tspan8996"
         style="font-style:normal;font-variant:normal;font-weight:normal;font-stretch:normal;font-size:1.5551px;font-family:'Courier New';-inkscape-font-specification:'Courier New, Normal';font-variant-ligatures:normal;font-variant-caps:normal;font-variant-numeric:normal;font-variant-east-asian:normal;stroke-width:0.0734692"
         x="116.53796"
         y="258.32849">(x2: 575, y2: 460)</tspan></text><path
       style="fill:none;fill-opacity:1;stroke:#ff7900;stroke-width:0.183673;stroke-dasharray:none;stroke-dashoffset:0;stroke-opacity:1"
       d="m 146.12155,247.81079 h 1.30655"
       id="path9000" /><path
       style="fill:none;fill-opacity:1;stroke:#ff7900;stroke-width:0.184;stroke-dasharray:none;stroke-dashoffset:0;stroke-opacity:1"
       d="m 146.12155,269.23807 h 1.30655"
       id="path12566" /><text
       xml:space="preserve"
       style="font-style:normal;font-variant:normal;font-weight:normal;font-stretch:normal;font-size:1.5551px;font-family:'Courier New';-inkscape-font-specification:'Courier New, Normal';font-variant-ligatures:normal;font-variant-caps:normal;font-variant-numeric:normal;font-variant-east-asian:normal;fill:none;fill-opacity:1;stroke:#ff7900;stroke-width:0.183673;stroke-dasharray:none;stroke-dashoffset:0;stroke-opacity:1"
       x="144.82457"
       y="258.58978"
       id="text12622"><tspan
         sodipodi:role="line"
         id="tspan12620"
         style="stroke-width:0.183673"
         x="144.82457"
         y="258.58978">1024</tspan></text><path
       style="fill:none;fill-opacity:1;stroke:#ff7900;stroke-width:0.183673;stroke-dasharray:none;stroke-dashoffset:0;stroke-opacity:1"
       d="m 146.78438,247.74546 v 9.1458"
       id="path12674" /><path
       style="fill:none;fill-opacity:1;stroke:#ff7900;stroke-width:0.183673;stroke-dasharray:none;stroke-dashoffset:0;stroke-opacity:1"
       d="M 146.71905,269.33046 V 259.5314"
       id="path12676" /><path
       style="fill:none;stroke:#000000;stroke-width:0.053967;stroke-dasharray:0.053967, 0.053967;stroke-dashoffset:0;stroke-opacity:1"
       d="m 111.50697,198.88013 h 39.6253"
       id="path13532" /><circle
       id="path14026"
       style="fill:#000000;stroke:#000000;stroke-width:0.057115"
       cx="112.39743"
       cy="199.8448"
       r="0.0093392041" /><path
       style="fill:#00eee0;fill-opacity:0.485577;stroke:none;stroke-width:0.0542783;stroke-dasharray:none;stroke-dashoffset:0;stroke-opacity:1"
       id="path14028"
       d="m 115.83391,201.0802 c 0.0874,-0.49729 0.19892,-0.98994 0.28425,-1.48765 0.0204,-0.0934 0.0307,-0.15642 0.0602,-0.24367 0.006,-0.0178 0.0123,-0.036 0.0224,-0.052 0.0252,-0.0398 0.0308,0.0151 0.0263,0.0129 -0.24681,-0.1246 -0.48717,-0.2613 -0.73075,-0.39195 0.13637,0.30358 0.1743,0.64631 0.2211,0.97286 0.0537,0.40124 0.0827,0.80547 0.13378,1.20689 0.0895,0.41852 0.23801,0.37898 0.86334,0.61197 0.0458,0.0171 0.30076,-0.40224 0.3217,-0.43618 0.19801,-0.32624 0.38482,-0.6588 0.59478,-0.97777 0.10014,-0.16818 0.19713,-0.33968 0.31372,-0.49746 0.0442,-0.0475 0.0603,-0.1344 0.11768,-0.17221 0.0216,-0.0143 0.026,0.0508 4e-5,0.0363 -0.25081,-0.13943 -0.48952,-0.29913 -0.73428,-0.44869 -0.0766,0.19016 -0.14409,0.38358 -0.2176,0.57494 -0.096,0.23863 -0.14829,0.48911 -0.17917,0.7431 -0.0108,0.1445 -0.0186,0.2899 -0.0177,0.43486 1.2e-4,0.0214 -0.0145,0.052 0.003,0.064 0.24591,0.16569 0.51038,0.30273 0.76556,0.45409 0.021,-0.0295 0.0446,-0.0573 0.0629,-0.0884 0.0477,-0.0812 0.0857,-0.18974 0.12017,-0.27414 0.0782,-0.19123 0.15779,-0.38193 0.23678,-0.57284 0.11278,-0.33561 0.26844,-0.65532 0.4272,-0.9716 0.0537,-0.0783 0.0894,-0.20561 0.18359,-0.25205 0.0143,-0.007 0.0339,-0.0121 0.0476,-0.004 0.0189,0.011 0.0573,0.0633 0.0376,0.0535 -0.23063,-0.11498 -0.45146,-0.24823 -0.67719,-0.37234 0.14092,0.19189 0.21792,0.42596 0.30111,0.64723 0.0996,0.28356 0.15386,0.57849 0.19048,0.87558 0.0387,0.4071 0.003,0.89521 0.86105,0.65306 0.17038,-0.0481 0.045,-0.3475 0.0675,-0.52125 0.17338,-1.35517 0.33174,-2.71255 0.45947,-4.07273 0.0271,-0.32533 0.0519,-0.65098 0.0675,-0.97709 0.007,-0.15183 0.006,-0.30482 0.0215,-0.4561 -0.25157,-0.0976 -0.48563,-0.31744 -0.75473,-0.2928 -0.12152,0.0111 0.0465,0.23688 0.0676,0.3557 0.0446,0.25068 0.0893,0.50135 0.12946,0.75276 0.17725,1.11097 0.29142,2.2242 0.39503,3.34382 0.10561,1.32087 0.18828,2.64406 0.21964,3.96884 0.20394,-0.0375 -0.0987,0.27542 -1.8e-4,0.3071 0.24245,0.078 0.53674,0.2733 0.75201,0.13824 0.16426,-0.10307 -0.0392,-0.3827 -0.0572,-0.5742 -0.0842,-0.89801 -0.0728,-0.80854 -0.14216,-1.74425 -0.096,-1.21408 -0.11011,-2.43232 -0.18331,-3.6475 -0.0113,-0.17154 -0.0237,-0.34301 -0.0361,-0.51447 -0.002,-0.0205 -0.004,-0.041 -0.005,-0.0616 -5e-5,-0.008 0.0106,-0.0192 0.004,-0.0223 -0.2573,-0.11494 -0.52049,-0.21656 -0.78073,-0.32484 0.21063,0.76103 0.49987,1.49985 0.79143,2.23359 0.22951,0.60845 0.51017,1.19583 0.75743,1.7971 0.12513,0.30727 0.0655,0.20969 0.80137,0.35214 0.0473,0.009 -0.0194,-0.0933 -0.0305,-0.13961 -0.0434,-0.18076 -0.0959,-0.35916 -0.1401,-0.5398 -0.0854,-0.36724 -0.11821,-0.74278 -0.13698,-1.11821 -0.0124,-0.40206 0.0991,-0.80163 0.1999,-1.18884 0.0399,-0.13291 0.0688,-0.26891 0.11079,-0.40123 0.0781,-0.24599 0.37043,0.13514 -0.72452,-0.41432 0.0342,0.33898 0.0257,0.68187 0.0275,1.02234 1.7e-4,0.51154 4.3e-4,1.02311 -0.003,1.53464 0.0209,0.29181 -0.0488,0.59608 0.0249,0.88231 0.0468,0.0824 0.0461,0.097 0.11693,0.1606 0.0684,0.0614 0.1595,0.11397 0.23988,0.15828 0.27365,0.15086 0.54879,0.29905 0.82319,0.44857 0.0263,10e-4 0.0537,0.0114 0.079,0.004 0.23247,-0.0666 0.17755,-0.76202 0.17764,-0.92508 -0.006,-0.51221 -0.0171,-1.02432 -0.0228,-1.53652 -0.009,-0.63482 0.14739,-0.34282 -0.76215,-0.72829 0.0542,0.18 0.0489,0.37011 0.069,0.55531 0.0502,0.21079 0.12213,0.41619 0.18358,0.62428 0.0627,0.21382 0.12385,0.43084 0.23669,0.62488 0.24022,0.26123 0.15342,0.17881 0.85771,0.45487 0.0384,0.0151 0.20271,-0.25603 0.224,-0.29235 0.0383,-0.0535 0.11056,-0.31718 0.18986,-0.30761 0.0125,0.002 0.0214,0.0131 0.0321,0.0197 0.21463,0.23385 0.0147,0.008 -0.65301,-0.34756 -0.0204,-0.0109 0.0353,0.03 0.0512,0.0467 0.0538,0.0562 0.10148,0.12019 0.1519,0.17943 0.18667,0.29008 0.76755,0.88151 0.96017,0.46481 0.0387,-0.11783 0.0168,-0.24374 0.0514,-0.36193 0.005,-0.005 0.008,-0.0146 0.0147,-0.0158 0.011,-0.002 0.0354,0.064 0.011,0.0514 -0.24361,-0.12488 -0.47305,-0.27524 -0.71352,-0.40594 -0.0136,-0.007 0.0219,0.022 0.0306,0.0348 0.0103,0.015 0.0174,0.0319 0.0262,0.0479 0.14985,0.3232 0.35204,0.33848 0.84057,0.51897 0.063,0.0233 0.10087,-0.37761 0.1038,-0.40266 0.0265,-0.43349 0.0312,-0.86797 0.0379,-1.3021 0.003,-0.13836 0.002,-0.27677 0.004,-0.41514 4.4e-4,-0.0278 8.7e-4,-0.0557 0.002,-0.0835 4.4e-4,-0.009 0.0112,-0.0225 0.003,-0.0265 -0.25459,-0.12443 -0.51646,-0.23375 -0.77469,-0.35063 0.012,0.37847 0.0611,0.75446 0.0971,1.13114 0.0304,0.34031 0.0347,0.68215 0.0941,1.01925 0.0469,0.20812 0.0827,0.41789 0.10003,0.6304 0.0116,0.0933 -4.3e-4,0.18944 0.0174,0.28215 0.0628,0.32546 0.65294,0.44996 0.81691,0.52005 0.0353,0.0151 0.0596,-0.0482 0.0893,-0.0724 0.17767,-0.26458 0.22328,-0.5892 0.31546,-0.88887 0.0626,-0.21054 0.0975,-0.42433 0.18152,-0.62799 0.0271,-0.0462 0.0623,-0.11905 0.12214,-0.13445 0.028,-0.007 0.10234,0.0534 0.0769,0.0397 -0.23479,-0.12572 -0.46629,-0.25736 -0.69944,-0.38604 0.1282,0.10619 0.15992,0.26904 0.20136,0.4207 0.1364,0.34791 0.31507,0.29532 0.84018,0.55141 0.0338,0.0165 0.17115,-0.11138 0.19535,-0.12881 0.13096,-0.13292 0.20271,-0.25919 0.40641,-0.24684 0.19366,0.0574 0.39073,0.0994 0.59079,0.12759 0.17285,0.004 0.3079,0.11337 0.45796,0.18222 -1.80004,-1.01982 0.0667,0.0408 0.10158,0.0584 0.0163,0.008 0.0374,-0.01 0.05,-0.0227 0.0651,-0.068 0.0882,-0.17928 0.11798,-0.26464 0.0681,-0.18936 0.0938,-0.38907 0.14036,-0.58383 0.0691,-0.24459 0.17862,-0.47426 0.28553,-0.70417 0.0348,-0.0631 0.17038,-0.3205 0.27402,-0.27941 0.0219,0.009 0.0345,0.0317 0.0518,0.0476 -0.21822,-0.11055 -0.42325,-0.2515 -0.65467,-0.33164 -0.0516,-0.0179 0.0625,0.0889 0.0894,0.1359 0.033,0.0576 0.0624,0.11716 0.09,0.17744 0.10426,0.22776 0.17944,0.46685 0.25771,0.70406 0.14622,0.44357 0.20858,0.90466 0.24057,1.3681 0.0132,0.1663 0.009,0.33321 0.0139,0.49973 10e-4,0.0333 0.006,0.16529 0.019,0.17251 0.25629,0.14487 0.52759,0.2621 0.79139,0.39314 0.0155,-0.0309 0.0342,-0.0604 0.0464,-0.0927 0.0204,-0.0539 0.077,-0.27235 0.0881,-0.31542 0.0494,-0.19148 0.0956,-0.38327 0.13769,-0.57643 0.0802,-0.31598 0.14349,-0.63599 0.18346,-0.95936 0.005,-0.0307 0.0267,-0.16231 0.0354,-0.19537 0.006,-0.0214 0.009,-0.0446 0.0229,-0.0622 0.0172,-0.0225 0.0883,0.0861 0.0382,0.0632 -0.23372,-0.10664 -0.45348,-0.24096 -0.68021,-0.36144 0.17147,0.30853 0.29348,0.64247 0.40582,0.97585 0.051,0.10289 0.0686,0.29742 0.18668,0.35954 0.8129,0.42767 0.56939,0.58019 0.87219,0.3533 0.13353,-0.15476 0.18749,-0.35592 0.30644,-0.51961 0.0376,-0.0369 0.0735,-0.0816 0.13052,-0.0601 0.025,0.009 0.0854,0.0634 0.0619,0.0507 -0.23825,-0.12938 -0.47111,-0.26822 -0.70666,-0.40233 0.23153,0.27228 0.23781,0.20661 0.85848,0.46991 0.0262,0.0111 0.0979,-0.12284 0.10934,-0.14045 0.0718,-0.10075 0.0634,-0.23072 0.12284,-0.33535 0.24236,-0.52219 0.48598,-1.04407 0.72297,-1.56884 0.47924,-1.24091 0.63504,-2.56857 0.8154,-3.87605 0.0685,-0.39177 0.0938,-0.79081 0.16664,-1.18193 0.008,-0.0432 0.0716,-0.10309 0.0345,-0.1273 -0.88807,-0.57983 -0.80625,-0.54874 -0.69625,-0.0801 0.13865,1.09049 0.32378,2.17418 0.46419,3.26448 0.12337,0.95805 0.15495,1.3116 0.25395,2.25696 0.0789,1.07675 0.22579,2.1545 0.22594,3.2358 0.0118,0.28625 -0.0962,0.54836 -0.19057,0.81235 -0.0666,0.19103 -0.0842,0.39126 -0.0999,0.59106 -0.0364,0.30262 -0.0427,0.25009 0.76552,0.36549 0.0735,0.0105 -0.0118,-0.14638 -0.0177,-0.21956 -0.01,-0.11912 -0.0189,-0.23828 -0.0291,-0.35736 -0.0234,-0.2746 -0.0485,-0.54907 -0.0723,-0.82363 -0.0628,-0.73032 -0.18153,-1.45386 -0.27592,-2.18039 -0.057,-0.53955 -0.13078,-1.07724 -0.18145,-1.61744 -0.0235,-0.3722 -0.0574,-0.74353 -0.0775,-1.11599 -0.009,-0.18376 -0.0154,-0.36765 -0.019,-0.5516 -0.002,-0.0846 -0.0132,-0.19273 0.002,-0.27789 -0.25819,-0.10767 -0.49941,-0.27057 -0.77457,-0.32302 -0.0585,-0.0111 0.003,0.11768 0.006,0.17647 0.005,0.11515 0.0103,0.23033 0.0179,0.34535 0.0394,0.59229 0.0847,1.18387 0.11971,1.7765 0.0461,0.87679 0.0716,1.75426 0.13566,2.63005 0.04,0.6078 0.0839,1.21514 0.13014,1.82249 0.0224,0.307 0.0362,0.61453 0.0415,0.92227 0.004,0.49571 -0.0703,0.42241 0.81187,0.62527 0.045,0.0104 0.0311,-0.0861 0.0467,-0.12911 0.17728,-0.82803 0.21814,-1.67981 0.29704,-2.52108 0.10334,-1.15246 0.18955,-2.30668 0.25318,-3.46198 0.0189,-0.35359 0.0343,-0.70741 0.0383,-1.0615 0.0221,-0.13517 -0.0326,-0.28843 0.005,-0.42085 -0.25056,-0.10653 -0.48663,-0.25599 -0.75168,-0.31958 -0.0503,-0.0121 0.0257,0.0992 0.0391,0.14864 0.0939,0.34503 0.0563,0.20114 0.18142,0.615 0.18804,0.62207 0.14535,0.4825 0.3291,1.1309 0.30871,1.10382 0.53951,2.22679 0.70381,3.35999 0.0497,0.27167 0.0745,0.54795 0.12953,0.81871 0.006,0.0277 -0.006,0.0706 0.0201,0.0824 0.25706,0.11736 0.53132,0.19371 0.79697,0.29057 0.006,-0.0692 0.0143,-0.13817 0.0178,-0.2075 0.0215,-0.42959 -0.005,-0.86229 -0.0166,-1.29168 -0.0232,-0.85877 -0.0145,-0.48103 -0.0295,-1.3467 0.007,-0.5128 -0.0248,-1.02692 -0.008,-1.5397 0.003,-0.084 0.009,-0.16796 0.0211,-0.2512 0.005,-0.0333 0.0568,-0.0801 0.0274,-0.0973 -0.23246,-0.13607 -0.49497,-0.21416 -0.74245,-0.32123 0.0153,0.0501 0.0345,0.0993 0.0459,0.15043 0.0679,0.30273 0.0897,0.61449 0.12217,0.92196 0.0147,0.13953 0.031,0.27891 0.0464,0.41836 0.0147,0.14047 0.0295,0.28095 0.0442,0.42142 0.0361,0.35695 0.0654,0.71456 0.0888,1.07255 0.013,0.20001 0.0174,0.39327 0.0635,0.58857 0.18011,0.30434 0.12894,0.24798 0.87342,0.39715 0.0563,0.0113 0.0598,-0.0971 0.084,-0.14862 0.10858,-0.23132 0.17398,-0.48153 0.24286,-0.72608 0.10967,-0.40303 0.17142,-0.8153 0.2045,-1.23066 0.0143,-0.30758 0.0106,-0.6157 0.0108,-0.92353 1e-5,-0.43849 0.0982,-0.46955 -0.76054,-0.56702 -0.0753,-0.009 0.026,0.1477 0.0375,0.2218 0.0148,0.0957 0.0276,0.19177 0.0414,0.28765 0.096,0.59037 0.12819,1.1883 0.21147,1.7801 0.0932,0.30957 0.0982,0.38802 0.82302,0.36733 0.11042,-0.003 0.0192,-0.21784 0.0194,-0.32704 0.001,-0.65513 -0.0697,-1.31111 -0.12586,-1.96296 -0.0453,-0.54176 -0.10542,-1.08225 -0.17477,-1.62148 -0.0129,-0.1002 -0.0256,-0.20046 -0.0412,-0.30028 -0.007,-0.0452 0.0128,-0.11108 -0.0268,-0.13459 -0.2454,-0.14546 -0.52255,-0.23062 -0.78383,-0.34593 0.004,0.0832 0.003,0.16678 0.0116,0.2496 0.0286,0.26759 0.10615,0.69973 0.14927,0.95396 0.0808,0.47662 0.15982,0.95323 0.23345,1.43099 0.1199,0.68085 0.0269,0.9363 0.94644,1.15978 0.0747,0.0182 0.052,-0.14367 0.0671,-0.2182 0.0183,-0.0902 0.022,-0.18274 0.0329,-0.27411 0.0311,-0.28521 0.0416,-0.57198 0.0623,-0.85793 0.004,-0.0618 0.0198,-0.29871 0.048,-0.37633 0.006,-0.0164 0.0268,-0.0226 0.0401,-0.0339 -0.23634,-0.10655 -0.46083,-0.24385 -0.709,-0.31966 -0.0474,-0.0145 0.0548,0.082 0.0761,0.12631 0.0304,0.0635 0.0552,0.12961 0.0782,0.1961 0.0838,0.24229 0.12903,0.49449 0.18014,0.74479 0.0773,0.34457 0.11181,0.70117 0.21952,1.03848 0.14648,0.32185 0.0885,0.23046 0.8044,0.50802 0.0411,0.0159 0.0466,-0.0746 0.063,-0.11504 0.0505,-0.1244 0.0621,-0.27178 0.0811,-0.40296 0.0302,-0.15193 0.008,-0.31723 0.0682,-0.46334 0.0203,-0.0495 0.0164,-0.0428 0.0444,-0.0252 0.095,0.29735 0.0177,0.0222 -0.68993,-0.35208 -0.0173,-0.009 0.0275,0.0279 0.0398,0.043 0.0413,0.0506 0.077,0.10714 0.11458,0.16043 0.80473,0.96672 0.83453,0.42655 0.98739,-0.0274 0.0194,-0.036 0.0435,-0.15605 0.11329,-0.14645 0.0327,0.004 0.10792,0.0746 0.0789,0.0591 -0.23199,-0.12386 -0.45889,-0.25682 -0.68833,-0.38524 0.25585,0.20536 0.32733,0.26842 0.84583,0.41954 0.0465,0.0136 0.0369,-0.0893 0.046,-0.1364 0.0494,-0.25551 0.0318,-0.53547 0.0293,-0.79254 -0.003,-0.57533 -0.0996,-1.14485 -0.1335,-1.71793 -0.24623,-0.0663 -0.49251,-0.26549 -0.73868,-0.19897 -0.12527,0.0339 0.0552,0.25092 0.0804,0.37686 0.0333,0.16656 0.0648,0.33348 0.0952,0.50058 0.1319,0.72556 0.24417,1.4534 0.35041,2.18298 0.0798,0.58005 0.15101,1.16131 0.20877,1.74393 0.0243,0.24485 0.0265,0.50112 0.0761,0.7429 0.26953,0.0833 0.53472,0.31789 0.8086,0.24985 0.15203,-0.0378 0.0323,-0.30828 0.0474,-0.46252 0.0777,-0.79675 0.13876,-1.59487 0.21616,-2.39169 0.0497,-0.52474 0.11206,-1.04852 0.14184,-1.57489 0.0186,-0.13768 -0.006,-0.35652 0.0831,-0.47227 0.21275,0.21307 -0.0689,-0.0724 -0.7148,-0.36222 -0.0275,-0.0123 0.0377,0.0471 0.0512,0.0737 0.0195,0.0384 0.0318,0.0799 0.0472,0.12009 0.10085,0.2621 0.0678,0.17468 0.16434,0.46064 0.20891,0.57399 0.33544,1.17057 0.4604,1.76627 0.11007,0.45209 0.19156,0.4609 0.88892,0.64508 0.0538,0.0142 0.0403,-0.10296 0.0525,-0.15661 0.0275,-0.12057 0.0409,-0.33425 0.0508,-0.45089 0.008,-0.12573 0.0196,-0.35881 0.0364,-0.48775 0.007,-0.0538 0.0116,-0.10903 0.0302,-0.16013 0.006,-0.0174 0.0246,-0.0452 0.0416,-0.0375 0.0251,0.0115 0.0631,0.0831 0.0372,0.0735 -0.21782,-0.0805 -0.42099,-0.19544 -0.63148,-0.29316 0.22279,0.34291 0.32836,0.74397 0.54293,1.09066 0.1956,0.22124 0.74158,0.68222 1.01159,0.46217 0.0625,-0.0509 0.0818,-0.10155 0.12055,-0.17029 0.0612,-0.10027 0.0609,-0.31325 0.15093,-0.39395 0.0179,-0.0161 0.0571,0.0112 0.0676,0.0165 0.0166,0.006 0.033,0.0132 0.0499,0.0188 0.0413,0.0138 0.15974,0.0682 0.12195,0.0467 -1.22616,-0.69739 -0.81381,-0.47683 -0.57065,-0.30931 0.32521,0.25766 0.68205,0.51635 1.10108,0.55761 0.15005,0.004 0.30429,0.0287 0.44835,-0.0181 0.16252,-0.049 0.31788,-0.11336 0.47526,-0.17596 0.15761,-0.0618 0.32493,-0.0827 0.49279,-0.0932 0.14967,-0.0211 0.29078,0.0103 0.43693,0.0347 0.19277,0.0471 0.38823,0.081 0.58247,0.12163 0.20698,0.0451 0.41187,0.092 0.62276,0.116 0.0333,0.003 0.0667,0.006 0.10003,0.009 0,0 -0.69151,-0.50678 -0.69151,-0.50678 v 0 c -0.0327,-0.003 -0.0653,-0.007 -0.098,-0.0103 -0.2086,-0.029 -0.41219,-0.0799 -0.61833,-0.12186 -0.1954,-0.0427 -0.3929,-0.0747 -0.58759,-0.12074 -0.14953,-0.0255 -0.29778,-0.0357 -0.44937,-0.0173 -0.17339,0.0168 -0.34466,0.0481 -0.50609,0.11564 -0.15403,0.0621 -0.30955,0.11958 -0.46986,0.1642 -0.14233,0.0193 -0.28787,0.006 -0.43023,-0.009 -0.0529,-0.01 -0.0775,-0.0122 -0.12815,-0.0296 -0.0197,-0.007 -0.0756,-0.0344 -0.0577,-0.0238 1.21921,0.72139 0.82318,0.49496 0.57956,0.32739 -0.0524,-0.0493 -0.0449,-0.0481 -0.1084,-0.0842 -0.25983,-0.14808 -0.62976,-0.46483 -0.99634,-0.49588 -0.0206,0.006 -0.0429,0.008 -0.0617,0.0176 -0.14468,0.0776 -0.13227,0.31241 -0.20129,0.43936 -0.0278,0.0471 -0.0431,0.0916 -0.0937,0.11899 -0.052,0.0281 -0.11732,-0.007 -0.10709,-6.5e-4 0.19691,0.12323 0.95206,0.56471 0.60072,0.35364 -0.25206,-0.32539 -0.34133,-0.742 -0.54833,-1.09382 -0.27605,-0.19041 -0.53992,-0.39934 -0.82815,-0.57122 -0.0725,-0.0432 -0.13836,0.0522 -0.15264,0.0978 -0.0657,0.20964 -0.0249,0.44461 -0.0608,0.65804 -0.0184,0.18398 -0.0203,0.25532 -0.0554,0.42858 -0.006,0.0315 -0.0514,0.0734 -0.0257,0.0931 0.21945,0.16782 0.47311,0.28664 0.70967,0.42995 -0.0207,-0.0228 -0.049,-0.0406 -0.062,-0.0684 -0.0256,-0.0545 -0.0343,-0.11533 -0.0514,-0.17299 -0.13619,-0.59633 -0.26937,-1.1939 -0.46162,-1.77585 -0.18556,-0.59347 0.0202,0.0572 -0.14809,-0.45513 -0.10703,-0.32579 -0.31661,-1.06362 -0.90674,-0.62455 -0.0962,0.15021 -0.0873,0.34728 -0.0964,0.51904 -0.0144,0.53249 -0.0548,1.06386 -0.0943,1.59499 -0.0631,0.79419 -0.1112,1.59386 -0.22456,2.383 -0.0207,0.14425 -0.15756,0.30979 -0.0753,0.43069 0.16558,0.24346 0.48011,0.34497 0.72017,0.51745 -0.0165,-0.0311 -0.0419,-0.0589 -0.0496,-0.0932 -0.0202,-0.0899 -0.0219,-0.18297 -0.0329,-0.27446 -0.0152,-0.12635 -0.0297,-0.25278 -0.0455,-0.37907 -0.0735,-0.58831 -0.15751,-1.17523 -0.24116,-1.76219 -0.10615,-0.72338 -0.20651,-1.44773 -0.3188,-2.17021 -0.0256,-0.16486 -0.0539,-0.32931 -0.0802,-0.49408 -0.0194,-0.12184 0.0283,-0.27562 -0.057,-0.36573 -0.22155,-0.23431 -0.53534,-0.36252 -0.80302,-0.54378 0.0557,0.19364 0.0689,0.39679 0.09,0.59606 0.0395,0.3735 0.0797,0.74771 0.0806,1.12375 -0.004,0.25568 -0.009,0.50509 -0.0449,0.75843 -0.003,0.022 -0.031,0.0531 -0.0123,0.0657 0.23065,0.15501 0.48175,0.27799 0.72482,0.41316 0.0172,0.01 -0.0311,-0.024 -0.0466,-0.036 -0.2638,-0.15601 -0.52393,-0.31824 -0.79139,-0.46804 -0.13431,-0.0752 -0.23906,0.11986 -0.26635,0.21226 -0.0659,0.19228 -0.0163,0.0408 -0.0733,0.23338 -0.009,0.0299 -0.0163,0.0604 -0.0278,0.0895 -0.007,0.0174 -0.043,0.0388 -0.0273,0.0492 0.56053,0.3695 1.00961,0.49373 0.68737,0.40197 -0.25321,-0.29185 -0.39561,-0.82991 -0.98066,-0.66764 -0.16627,0.13069 -0.11382,0.38858 -0.14761,0.57333 -0.0156,0.10958 -0.0205,0.16321 -0.0458,0.26965 -0.0913,0.38479 -0.18392,0.0742 0.67435,0.55043 0.0208,0.0115 -0.0285,-0.0378 -0.0428,-0.0566 -0.1336,-0.32892 -0.15625,-0.69348 -0.24206,-1.03563 -0.0511,-0.25234 -0.0948,-0.50604 -0.16881,-0.75317 -0.0203,-0.0678 -0.0429,-0.13492 -0.0672,-0.20141 -0.0178,-0.0488 -0.0156,-0.11527 -0.0591,-0.14441 -0.26047,-0.17453 -0.55151,-0.29968 -0.82726,-0.44953 -0.0173,0.026 -0.0425,0.0482 -0.0519,0.0779 -0.0238,0.0751 -0.0378,0.33239 -0.0411,0.39055 -0.0161,0.28431 -0.0216,0.56951 -0.0583,0.8524 -0.0834,0.55718 -0.19905,0.41652 0.62689,0.80762 0.0448,0.0212 -0.0465,-0.0873 -0.0619,-0.13398 -0.0599,-0.18124 -0.0982,-0.41714 -0.13358,-0.59893 -0.14637,-0.85295 -0.32649,-1.70586 -0.37367,-2.57107 -0.24833,-0.14551 -0.48066,-0.32184 -0.745,-0.43652 -0.0445,-0.0193 0.0389,0.0885 0.0504,0.13517 0.0249,0.10089 0.0413,0.20366 0.0583,0.30613 0.0899,0.5413 0.15257,1.08707 0.20668,1.63279 0.0546,0.64128 0.11671,1.28344 0.0864,1.92796 -0.005,0.0977 -0.10084,0.22006 -0.0333,0.29146 0.18526,0.19574 1.00443,0.66218 0.69495,0.41799 -0.11627,-0.58836 -0.14146,-1.19061 -0.22611,-1.78368 -0.011,-0.0948 -0.0224,-0.18954 -0.0331,-0.28437 -0.008,-0.0705 0.0321,-0.16581 -0.0227,-0.21173 -0.92525,-0.77628 -0.77313,-0.664 -0.77454,-0.19564 0.003,0.30615 0.005,0.6125 -0.008,0.91848 -0.0225,0.41242 -0.0755,0.8227 -0.18167,1.22303 -0.0648,0.22714 -0.0764,0.28881 -0.16132,0.5059 -0.0256,0.0656 -0.0523,0.13094 -0.0844,0.19364 -0.0212,0.0414 -0.10973,0.0864 -0.0751,0.11765 0.2037,0.18374 0.46683,0.29044 0.69583,0.4423 0.0192,0.0127 -0.0433,-0.0159 -0.0649,-0.0239 -0.0802,-0.2068 -0.0731,-0.36061 -0.0918,-0.582 -0.0305,-0.36061 -0.0674,-0.72066 -0.10145,-1.08095 -0.0665,-0.64227 -0.11319,-1.28632 -0.20056,-1.9263 -0.26902,-0.14181 -0.52195,-0.31864 -0.80704,-0.42544 -0.0372,-0.0139 -0.0139,0.0777 -0.0163,0.117 -0.005,0.0882 -0.007,0.17652 -0.006,0.26481 0.005,0.51843 0.0387,1.03676 0.0386,1.55533 0.0139,0.92855 0.0534,1.8631 -0.0256,2.78918 0.24612,0.16048 0.48312,0.33553 0.73836,0.48143 0.0243,0.0139 -0.0237,-0.0506 -0.0314,-0.0773 -0.0777,-0.2697 -0.0844,-0.55751 -0.15783,-0.82836 -0.19121,-1.13715 -0.43813,-2.26454 -0.72707,-3.38131 -0.13464,-0.49285 -0.27093,-0.98557 -0.40083,-1.47966 -0.0207,-0.0788 -0.0404,-0.15782 -0.0581,-0.2373 -0.0109,-0.0492 0.013,-0.11843 -0.0277,-0.14868 -0.24477,-0.1816 -0.52787,-0.30625 -0.79181,-0.45938 -0.0436,0.14022 0.009,0.30215 -0.009,0.44683 0.005,0.35816 0.005,0.71638 -0.005,1.07447 -0.0336,1.16052 -0.094,2.32062 -0.21607,3.47571 -0.0908,0.82456 -0.15651,1.66043 -0.3492,2.4689 -0.15665,0.37817 -0.0706,0.0656 0.69572,0.54663 0.01,0.006 -0.0286,0.0193 -0.0344,0.009 -0.0272,-0.0491 0.019,-0.19915 -0.003,-0.25563 -0.009,-0.31221 -0.0311,-0.62384 -0.0571,-0.93511 -0.0498,-0.6097 -0.10329,-1.21899 -0.14505,-1.82934 -0.0645,-0.88021 -0.10632,-1.76174 -0.1631,-2.64244 -0.035,-0.58559 -0.0758,-1.17171 -0.0892,-1.75832 -0.003,-0.1112 -0.001,-0.22248 1.2e-4,-0.33371 6.5e-4,-0.0566 0.0506,-0.13367 0.006,-0.16956 -0.23153,-0.1879 -0.51547,-0.30185 -0.7732,-0.45278 0.022,0.0854 0.0125,0.19836 0.0152,0.28446 0.006,0.18543 0.013,0.37084 0.023,0.55609 0.0214,0.37246 0.0449,0.74476 0.0709,1.11691 0.059,0.54532 0.15344,1.08635 0.20696,1.63237 0.0916,0.7262 0.20016,1.45025 0.27832,2.17806 0.025,0.27722 0.051,0.54058 0.0671,0.81857 0.007,0.11597 0.0106,0.2321 0.0137,0.34822 0.002,0.0697 -0.052,0.16346 0.001,0.20913 0.22643,0.1941 0.50909,0.3135 0.77274,0.45439 0.0122,0.007 4.3e-4,-0.0274 6.5e-4,-0.0412 0.008,-0.19341 0.0251,-0.38703 0.0848,-0.57255 0.0938,-0.27534 0.21015,-0.5483 0.19055,-0.84568 -0.0118,-0.33833 -0.0457,-0.67369 -0.0789,-1.01068 -0.0749,-0.76074 -0.15735,-1.52074 -0.24276,-2.28039 -0.20572,-1.82605 -0.44483,-3.6488 -0.62314,-5.47758 -0.0272,-0.52799 0.0642,-0.41403 -0.80982,-0.68423 -0.0461,-0.0143 -0.0135,0.0945 -0.019,0.14196 -0.0268,0.23511 -0.0457,0.47107 -0.0761,0.7058 -0.0188,0.1644 -0.0385,0.32869 -0.0578,0.49304 -0.1526,1.30304 -0.31066,2.62455 -0.81567,3.84886 -0.23987,0.51981 -0.49251,1.03331 -0.7671,1.5362 -0.0584,0.10544 -0.0587,0.22586 -0.12027,0.33003 -0.0157,0.0237 -0.0258,0.0524 -0.0476,0.0708 -0.006,0.005 -0.0303,0.004 -0.0233,0.008 1.52886,0.93685 0.82659,0.55686 0.65056,0.35774 -0.25565,-0.15727 -0.50846,-0.31916 -0.76696,-0.47181 -0.0946,-0.0559 -0.20822,0.0579 -0.26096,0.11673 -0.10735,0.1566 -0.16083,0.34517 -0.28966,0.48685 -0.30046,0.0999 -0.0363,4.3e-4 0.66037,0.42171 0.0193,0.0117 -0.0457,-0.009 -0.0643,-0.0218 -0.0924,-0.0639 -0.11447,-0.19493 -0.1556,-0.28867 -0.11397,-0.33683 -0.24631,-0.66766 -0.38948,-0.99333 -0.15633,-0.10289 -0.74798,-0.71296 -0.90322,-0.45667 -0.0495,0.0818 -0.0366,0.18963 -0.0625,0.27785 -0.0318,0.32277 -0.0888,0.64231 -0.16963,0.95674 -0.0673,0.30733 -0.13306,0.62271 -0.25455,0.9136 0.2414,0.14412 0.47924,0.29422 0.72419,0.43235 0.0149,0.008 -0.0255,-0.0248 -0.0302,-0.041 -0.0574,-0.1954 0.01,-0.41672 -0.0318,-0.61464 -0.0334,-0.4703 -0.0934,-0.93857 -0.23885,-1.38974 -0.0766,-0.23839 -0.14957,-0.47863 -0.24544,-0.71041 -0.006,-0.0151 -0.13133,-0.30425 -0.16261,-0.32777 -0.25833,-0.19419 -0.54283,-0.35176 -0.81424,-0.52764 -0.0284,-0.001 -0.0574,-0.009 -0.0854,-0.003 -0.1563,0.0304 -0.23704,0.2274 -0.30707,0.34478 -0.10641,0.23558 -0.21981,0.46884 -0.29355,0.71714 -0.0515,0.1911 -0.0738,0.38812 -0.13868,0.57577 -0.0195,0.0535 -0.0355,0.10837 -0.0589,0.16029 -0.003,0.007 -0.006,0.0178 -0.014,0.0185 -0.008,6.4e-4 -0.0251,-0.0196 -0.0182,-0.0156 0.0333,0.0188 1.99033,1.14212 -0.10013,-0.0559 -0.14923,-0.0782 -0.29868,-0.15174 -0.47163,-0.15946 -0.20242,-0.0331 -0.39933,-0.0945 -0.60334,-0.1139 -0.19906,0.0331 -0.2971,0.14886 -0.43289,0.28582 -0.0223,0.015 -0.0878,0.0639 -0.12131,0.0711 -0.0114,0.002 -0.0444,-0.0125 -0.0344,-0.006 1.36264,0.84299 0.78099,0.57398 0.62876,0.33582 -0.0541,-0.15835 -0.0711,-0.33067 -0.17766,-0.4684 -0.42292,-0.24359 -0.78964,-0.74344 -1.05694,-0.2526 -0.084,0.20756 -0.12059,0.42316 -0.17819,0.63879 -0.009,0.0306 -0.082,0.27352 -0.0886,0.29864 -0.0482,0.18371 -0.0753,0.38209 -0.20243,0.53292 -0.30889,0.0817 -0.0878,0.01 0.63142,0.43402 0.0166,0.01 -0.0326,-0.0239 -0.0399,-0.0415 -0.0359,-0.0863 -8.6e-4,-0.19033 -0.0201,-0.27922 -0.0153,-0.21633 -0.0476,-0.43002 -0.0993,-0.64103 -0.0723,-0.33498 -0.0774,-0.6776 -0.10999,-1.01767 -0.0336,-0.36997 -0.0868,-0.74053 -0.0785,-1.11259 -0.25808,-0.14309 -0.51226,-0.29329 -0.77424,-0.42927 -0.009,-0.005 0.003,0.0195 0.004,0.0293 0.002,0.0285 0.002,0.0571 0.003,0.0857 0.002,0.13922 8.6e-4,0.27849 0.003,0.41772 0.001,0.43092 0.001,0.86272 -0.0359,1.29239 -0.006,0.051 -0.0113,0.10223 -0.0193,0.153 -0.006,0.0376 -0.0151,0.0747 -0.0228,0.11204 -0.001,0.006 -0.009,0.0144 -0.004,0.0175 0.23583,0.14223 0.47957,0.27133 0.71628,0.41213 0.0129,0.008 -0.0321,-0.002 -0.0434,-0.0119 -0.0146,-0.0124 -0.0192,-0.0331 -0.0289,-0.0496 -0.11537,-0.34197 -0.67799,-0.82795 -0.91737,-0.48053 -0.0336,0.1161 -0.0259,0.23441 -0.0469,0.3526 -0.0703,0.2051 -0.9856,-0.55833 0.71382,0.42592 0.013,0.008 -0.0303,-0.007 -0.0418,-0.017 -0.0281,-0.0235 -0.0636,-0.0897 -0.0807,-0.11862 -0.2597,-0.33317 -0.57816,-0.67737 -1.04621,-0.71823 -0.16615,0.0557 -0.1935,0.22589 -0.266,0.3662 -0.0168,0.0282 -0.0698,0.1193 -0.0918,0.1477 -0.0148,0.019 -0.0306,0.0378 -0.0495,0.0528 -0.0112,0.009 -0.0514,0.01 -0.0394,0.0173 0.55126,0.35797 0.96085,0.50955 0.63576,0.38619 -0.14298,-0.16826 -0.18645,-0.39635 -0.24937,-0.60217 -0.0685,-0.20143 -0.12109,-0.40891 -0.18958,-0.61052 -0.0288,-0.18842 -0.0205,-0.38088 -0.0565,-0.56874 -0.94503,-0.50222 -0.7985,-0.67133 -0.78183,-0.0154 0.0175,0.51385 0.0369,1.02774 0.0391,1.54194 -0.002,0.12091 0.0146,0.68045 -0.0826,0.78034 -0.022,0.0226 -0.0974,-0.008 -0.10914,-0.011 1.70614,0.99581 0.44771,0.28601 0.33831,0.1872 -0.0222,-0.0201 -0.0402,-0.0444 -0.0603,-0.0666 -0.0491,-0.10889 -0.048,-0.19614 -0.0491,-0.31573 -0.002,-0.18312 -0.003,-0.36624 -0.004,-0.54937 -0.003,-0.51195 -0.001,-1.02394 4.3e-4,-1.53589 0.002,-0.34188 0.008,-0.68387 0.004,-1.02572 -0.25516,-0.15572 -0.50267,-0.32439 -0.76547,-0.46714 -0.0159,-0.009 -0.0303,0.0412 -0.0463,0.10191 -0.0356,0.13541 -0.0637,0.2727 -0.10128,0.40762 -0.0521,0.20996 -0.0971,0.42117 -0.1432,0.6325 -0.0252,0.11552 -0.0688,0.29783 -0.0774,0.41953 -0.004,0.0521 0.003,0.10442 0.004,0.15663 0.0205,0.38054 0.0563,0.76114 0.13656,1.13445 0.04,0.17986 0.0872,0.35705 0.13169,0.5358 0.0103,0.0413 -0.004,0.0992 0.031,0.124 0.24594,0.17412 0.5151,0.31478 0.78353,0.45267 0.0239,0.0123 -0.0258,-0.0467 -0.0387,-0.07 -0.27505,-0.6021 -0.56153,-1.19987 -0.80419,-1.81568 -0.28531,-0.71491 -0.5624,-1.43839 -0.74176,-2.18751 -0.26396,-0.13678 -0.52909,-0.27136 -0.79188,-0.41033 -0.004,-0.002 0.0126,-0.005 0.0145,-8.7e-4 0.008,0.0195 0.009,0.0414 0.0117,0.0623 0.0263,0.1739 0.038,0.34965 0.0598,0.52409 0.12071,1.22427 0.16413,2.45452 0.25342,3.68118 0.0334,0.53971 0.0749,1.18005 0.10135,1.72418 0.009,0.18425 -0.0818,0.39932 0.0214,0.55297 0.18284,0.27215 0.49434,0.43647 0.76721,0.62079 0.0891,0.0602 -0.2089,-0.53314 -0.0226,-0.31921 -0.0835,-1.34304 -0.20921,-2.68308 -0.32254,-4.02385 -0.0527,-0.59327 -0.15517,-1.78141 -0.22096,-2.38019 -0.0345,-0.31415 -0.0806,-0.62696 -0.11856,-0.94072 -0.0295,-0.24341 -0.0569,-0.48705 -0.0838,-0.73075 -0.0127,-0.11496 0.048,-0.26359 -0.0349,-0.34521 -0.21763,-0.21436 -0.52716,-0.31201 -0.79074,-0.46802 0.0317,0.48308 -0.0285,0.96991 -0.0396,1.45243 -0.0919,1.36144 -0.21529,2.72322 -0.45283,4.06832 -0.0343,0.16065 -0.19178,0.34318 -0.10299,0.48195 0.15676,0.24504 0.48253,0.32973 0.72584,0.49161 0.0126,0.008 -0.0275,-0.017 -0.0333,-0.0309 -0.0422,-0.10077 -0.009,-0.22199 -0.0373,-0.32534 -0.0376,-0.30167 -0.0896,-0.60131 -0.1801,-0.89248 -0.0858,-0.23018 -0.17584,-0.45895 -0.28005,-0.68148 -0.26614,-0.16127 -0.52586,-0.33339 -0.79842,-0.48382 -0.13667,-0.0754 -0.29661,0.24341 -0.33478,0.31783 -0.15558,0.32014 -0.31083,0.64234 -0.42349,0.98016 -0.0784,0.19092 -0.15696,0.38128 -0.24039,0.57012 -0.0194,0.0439 -0.0802,0.21763 -0.13335,0.25543 1.53513,0.96332 0.71699,0.67426 0.69091,0.38778 -0.0129,-0.14165 0.0111,-0.28635 0.0131,-0.42791 0.0245,-0.24816 0.0705,-0.4933 0.16469,-0.72593 0.0746,-0.18967 0.14251,-0.38174 0.22916,-0.56654 -0.69298,-0.48898 -0.60894,-0.71896 -0.88464,-0.2685 -0.11509,0.16103 -0.21632,0.33133 -0.31183,0.50433 -0.20174,0.324 -0.38165,0.6604 -0.58352,0.98429 -0.0603,0.0909 -0.14707,0.23577 -0.23057,0.31742 -0.018,0.0175 -0.0852,0.0235 -0.065,0.0385 0.21616,0.16084 0.45885,0.28353 0.68827,0.42529 -0.0159,-0.0183 -0.0369,-0.0332 -0.0477,-0.0548 -0.0171,-0.0343 -0.0229,-0.0731 -0.0343,-0.1097 -0.0671,-0.40049 -0.0894,-0.80827 -0.14294,-1.21069 -0.0459,-0.33563 -0.0959,-0.67149 -0.18183,-0.99942 -0.77228,-0.45094 -0.80354,-0.71288 -0.92535,-0.06 -0.0722,0.49693 -0.17076,0.98934 -0.28566,1.47833 0,0 0.75174,0.40188 0.75174,0.40188 z" /><path
       style="fill:#00eee0;fill-opacity:0.485577;stroke:#000000;stroke-width:0.053967;stroke-dasharray:none;stroke-dashoffset:0;stroke-opacity:1"
       d="m 111.43277,190.94023 h 39.6995"
       id="path18641" /><path
       style="fill:#00eee0;fill-opacity:0.485577;stroke:#000000;stroke-width:0.053967;stroke-dasharray:none;stroke-dashoffset:0;stroke-opacity:1"
       d="m 111.43277,205.85537 h 39.6995"
       id="path18643" /><text
       xml:space="preserve"
       style="font-style:normal;font-variant:normal;font-weight:normal;font-stretch:normal;font-size:2.96879px;font-family:Calibri;-inkscape-font-specification:'Calibri, Normal';font-variant-ligatures:normal;font-variant-caps:normal;font-variant-numeric:normal;font-variant-east-asian:normal;fill:#00eee0;fill-opacity:0.485577;stroke:#000000;stroke-width:0.0584407;stroke-dasharray:none;stroke-dashoffset:0;stroke-opacity:1"
       x="105.92283"
       y="206.3782"
       id="text20877"
       transform="scale(1.0854666,0.92126281)"><tspan
         sodipodi:role="line"
         id="tspan20875"
         style="font-style:normal;font-variant:normal;font-weight:normal;font-stretch:normal;font-size:2.96879px;font-family:Calibri;-inkscape-font-specification:'Calibri, Normal';font-variant-ligatures:normal;font-variant-caps:normal;font-variant-numeric:normal;font-variant-east-asian:normal;stroke-width:0.0584407"
         x="105.92283"
         y="206.3782">click on</tspan></text><text
       xml:space="preserve"
       style="font-style:normal;font-variant:normal;font-weight:normal;font-stretch:normal;font-size:2.74153px;font-family:Calibri;-inkscape-font-specification:'Calibri, Normal';font-variant-ligatures:normal;font-variant-caps:normal;font-variant-numeric:normal;font-variant-east-asian:normal;fill:#00eee0;fill-opacity:0.485577;stroke:#000000;stroke-width:0.053967;stroke-dasharray:none;stroke-dashoffset:0;stroke-opacity:1"
       x="125.75427"
       y="190.13074"
       id="text20881"><tspan
         sodipodi:role="line"
         id="tspan20879"
         style="font-style:normal;font-variant:normal;font-weight:normal;font-stretch:normal;font-size:2.74153px;font-family:Calibri;-inkscape-font-specification:'Calibri, Normal';font-variant-ligatures:normal;font-variant-caps:normal;font-variant-numeric:normal;font-variant-east-asian:normal;stroke-width:0.053967"
         x="125.75427"
         y="190.13074">the</tspan></text><text
       xml:space="preserve"
       style="font-style:normal;font-variant:normal;font-weight:normal;font-stretch:normal;font-size:3.8192px;font-family:Calibri;-inkscape-font-specification:'Calibri, Normal';font-variant-ligatures:normal;font-variant-caps:normal;font-variant-numeric:normal;font-variant-east-asian:normal;fill:#00eee0;fill-opacity:0.485577;stroke:#000000;stroke-width:0.0751813;stroke-dasharray:none;stroke-dashoffset:0;stroke-opacity:1"
       x="92.757141"
       y="267.27814"
       id="text20935"
       transform="scale(1.4058057,0.71133586)"><tspan
         sodipodi:role="line"
         id="tspan20933"
         style="font-style:normal;font-variant:normal;font-weight:normal;font-stretch:normal;font-size:3.8192px;font-family:Calibri;-inkscape-font-specification:'Calibri, Normal';font-variant-ligatures:normal;font-variant-caps:normal;font-variant-numeric:normal;font-variant-east-asian:normal;stroke-width:0.0751813"
         x="92.757141"
         y="267.27814">candy</tspan></text><text
       xml:space="preserve"
       style="font-style:normal;font-variant:normal;font-weight:normal;font-stretch:normal;font-size:3.8192px;font-family:Calibri;-inkscape-font-specification:'Calibri, Normal';font-variant-ligatures:normal;font-variant-caps:normal;font-variant-numeric:normal;font-variant-east-asian:normal;fill:#00eee0;fill-opacity:0.485577;stroke:#000000;stroke-width:0.0751813;stroke-dasharray:none;stroke-dashoffset:0;stroke-opacity:1"
       x="92.757141"
       y="271.03357"
       id="text20939"
       transform="scale(1.4058057,0.71133586)"><tspan
         sodipodi:role="line"
         id="tspan20937"
         style="font-style:normal;font-variant:normal;font-weight:normal;font-stretch:normal;font-size:3.8192px;font-family:Calibri;-inkscape-font-specification:'Calibri, Normal';font-variant-ligatures:normal;font-variant-caps:normal;font-variant-numeric:normal;font-variant-east-asian:normal;fill:#e5ee36;fill-opacity:0.485577;stroke:none;stroke-width:0.0751813"
         x="92.757141"
         y="271.03357">candle</tspan></text><path
       style="fill:none;fill-opacity:0.485577;stroke:#000000;stroke-width:0.0755538;stroke-dasharray:0.0755538, 0.226662;stroke-dashoffset:0;stroke-opacity:1"
       d="m 125.82847,190.94023 v 14.98935 h 0.66785"
       id="path21097" /><path
       style="fill:none;fill-opacity:0.485577;stroke:#000000;stroke-width:0.0755538;stroke-dasharray:0.0755538, 0.226662;stroke-dashoffset:0;stroke-opacity:1"
       d="m 130.20655,190.94023 v 14.98935 h 0.66784"
       id="path21099" /><path
       style="fill:none;fill-opacity:0.485577;stroke:#000000;stroke-width:0.0755538;stroke-dasharray:0.0755538, 0.226662;stroke-dashoffset:0;stroke-opacity:1"
       d="m 140.74362,190.94023 v 14.98935 h 0.66784"
       id="path21101" /><circle
       style="fill:#808080;fill-opacity:1;stroke:none;stroke-width:0.0755536;stroke-dasharray:0.0755536, 0.226662;stroke-dashoffset:0;stroke-opacity:1"
       id="path21103"
       cx="111.29898"
       cy="205.90417"
       r="0.33392102" /><circle
       style="fill:#000000;fill-opacity:1;stroke:none;stroke-width:0.0755536;stroke-dasharray:0.0755536, 0.226662;stroke-dashoffset:0;stroke-opacity:1"
       id="circle23809"
       cx="125.85959"
       cy="205.90417"
       r="0.33392102" /><circle
       style="fill:#000000;fill-opacity:1;stroke:none;stroke-width:0.0755536;stroke-dasharray:0.0755536, 0.226662;stroke-dashoffset:0;stroke-opacity:1"
       id="circle23811"
       cx="130.24088"
       cy="205.90417"
       r="0.33392102" /><circle
       style="fill:#000000;fill-opacity:1;stroke:none;stroke-width:0.0755536;stroke-dasharray:0.0755536, 0.226662;stroke-dashoffset:0;stroke-opacity:1"
       id="circle23813"
       cx="140.76123"
       cy="205.90417"
       r="0.33392102" /><text
       xml:space="preserve"
       style="font-style:normal;font-variant:normal;font-weight:normal;font-stretch:normal;font-size:2.74153px;font-family:Calibri;-inkscape-font-specification:'Calibri, Normal';font-variant-ligatures:normal;font-variant-caps:normal;font-variant-numeric:normal;font-variant-east-asian:normal;fill:#808080;fill-opacity:1;stroke:none;stroke-width:0.0755536;stroke-dasharray:0.0755536, 0.226662;stroke-dashoffset:0;stroke-opacity:1"
       x="111.31195"
       y="207.82011"
       id="text23817"><tspan
         sodipodi:role="line"
         style="font-style:normal;font-variant:normal;font-weight:normal;font-stretch:normal;font-size:1.37076px;font-family:Calibri;-inkscape-font-specification:'Calibri, Normal';font-variant-ligatures:normal;font-variant-caps:normal;font-variant-numeric:normal;font-variant-east-asian:normal;text-align:center;text-anchor:middle;fill:#808080;fill-opacity:1;stroke:none;stroke-width:0.0755538"
         x="111.31195"
         y="207.82011"
         id="tspan23819">0</tspan></text><text
       xml:space="preserve"
       style="font-style:normal;font-variant:normal;font-weight:normal;font-stretch:normal;font-size:2.74153px;font-family:Calibri;-inkscape-font-specification:'Calibri, Normal';font-variant-ligatures:normal;font-variant-caps:normal;font-variant-numeric:normal;font-variant-east-asian:normal;fill:#000000;fill-opacity:1;stroke:none;stroke-width:0.0755536;stroke-dasharray:0.0755536, 0.226662;stroke-dashoffset:0;stroke-opacity:1"
       x="125.8201"
       y="207.82011"
       id="text23825"><tspan
         sodipodi:role="line"
         style="font-style:normal;font-variant:normal;font-weight:normal;font-stretch:normal;font-size:1.37076px;font-family:Calibri;-inkscape-font-specification:'Calibri, Normal';font-variant-ligatures:normal;font-variant-caps:normal;font-variant-numeric:normal;font-variant-east-asian:normal;text-align:center;text-anchor:middle;stroke:none;stroke-width:0.0755538"
         x="125.8201"
         y="207.82011"
         id="tspan23823">495</tspan></text><text
       xml:space="preserve"
       style="font-style:normal;font-variant:normal;font-weight:normal;font-stretch:normal;font-size:2.74153px;font-family:Calibri;-inkscape-font-specification:'Calibri, Normal';font-variant-ligatures:normal;font-variant-caps:normal;font-variant-numeric:normal;font-variant-east-asian:normal;fill:#000000;fill-opacity:1;stroke:none;stroke-width:0.0755536;stroke-dasharray:0.0755536, 0.226662;stroke-dashoffset:0;stroke-opacity:1"
       x="130.25385"
       y="207.82011"
       id="text23829"><tspan
         sodipodi:role="line"
         style="font-style:normal;font-variant:normal;font-weight:normal;font-stretch:normal;font-size:1.37076px;font-family:Calibri;-inkscape-font-specification:'Calibri, Normal';font-variant-ligatures:normal;font-variant-caps:normal;font-variant-numeric:normal;font-variant-east-asian:normal;text-align:center;text-anchor:middle;stroke:none;stroke-width:0.0755538"
         x="130.25385"
         y="207.82011"
         id="tspan23827">643</tspan></text><text
       xml:space="preserve"
       style="font-style:normal;font-variant:normal;font-weight:normal;font-stretch:normal;font-size:2.74153px;font-family:Calibri;-inkscape-font-specification:'Calibri, Normal';font-variant-ligatures:normal;font-variant-caps:normal;font-variant-numeric:normal;font-variant-east-asian:normal;fill:#000000;fill-opacity:1;stroke:none;stroke-width:0.0755536;stroke-dasharray:0.0755536, 0.226662;stroke-dashoffset:0;stroke-opacity:1"
       x="140.72174"
       y="207.82011"
       id="text24559"><tspan
         sodipodi:role="line"
         style="font-style:normal;font-variant:normal;font-weight:normal;font-stretch:normal;font-size:1.37076px;font-family:Calibri;-inkscape-font-specification:'Calibri, Normal';font-variant-ligatures:normal;font-variant-caps:normal;font-variant-numeric:normal;font-variant-east-asian:normal;text-align:center;text-anchor:middle;stroke:none;stroke-width:0.0755538"
         x="140.72174"
         y="207.82011"
         id="tspan24557">988</tspan></text><text
       xml:space="preserve"
       style="font-style:normal;font-variant:normal;font-weight:normal;font-stretch:normal;font-size:2.74153px;font-family:Calibri;-inkscape-font-specification:'Calibri, Normal';font-variant-ligatures:normal;font-variant-caps:normal;font-variant-numeric:normal;font-variant-east-asian:normal;fill:#000000;fill-opacity:1;stroke:none;stroke-width:0.0755536;stroke-dasharray:0.0755536, 0.226662;stroke-dashoffset:0;stroke-opacity:1"
       x="147.41174"
       y="207.82011"
       id="text24563"><tspan
         sodipodi:role="line"
         style="font-style:normal;font-variant:normal;font-weight:normal;font-stretch:normal;font-size:1.37076px;font-family:Calibri;-inkscape-font-specification:'Calibri, Normal';font-variant-ligatures:normal;font-variant-caps:normal;font-variant-numeric:normal;font-variant-east-asian:normal;text-align:center;text-anchor:middle;fill:#808080;fill-opacity:1;stroke:none;stroke-width:0.0755538"
         x="147.41174"
         y="207.82011"
         id="tspan24561">milliseconds</tspan></text><path
       style="fill:none;fill-opacity:1;stroke:#23ec19;stroke-width:0.25;stroke-dasharray:none;stroke-dashoffset:0;stroke-opacity:1"
       d="M 10.311377,142.83233 H 3.520958 v 74.44312 h 8.047904"
       id="path26220" /><path
       style="fill:none;fill-opacity:1;stroke:#24ec14;stroke-width:0.245283;stroke-dasharray:none;stroke-dashoffset:0;stroke-opacity:1"
       d="M 10.274606,158.42279 H 6.5733338 v 25.9089 h 3.7012722"
       id="path26897" /><path
       style="fill:none;fill-opacity:1;stroke:#24ec14;stroke-width:0.25;stroke-dasharray:none;stroke-dashoffset:0;stroke-opacity:1"
       d="M 11.317365,222.05389 H 7.5449101 v 30.93413 h 5.5329339"
       id="path26953" /><text
       xml:space="preserve"
       style="font-style:normal;font-variant:normal;font-weight:normal;font-stretch:normal;font-size:1.5551px;font-family:'Courier New';-inkscape-font-specification:'Courier New, Normal';font-variant-ligatures:normal;font-variant-caps:normal;font-variant-numeric:normal;font-variant-east-asian:normal;fill:none;fill-opacity:1;stroke:#ff7900;stroke-width:0.183673;stroke-dasharray:none;stroke-dashoffset:0;stroke-opacity:1"
       x="126.77429"
       y="272.06079"
       id="text1375"><tspan
         sodipodi:role="line"
         id="tspan1373"
         style="stroke-width:0.183673"
         x="126.77429"
         y="272.06079">1280</tspan></text></g></svg>
